<?xml version="1.0" standalone="no"?>
<!DOCTYPE svg PUBLIC "-//W3C//DTD SVG 20010904//EN"
 "http://www.w3.org/TR/2001/REC-SVG-20010904/DTD/svg10.dtd">
<svg version="1.0" xmlns="http://www.w3.org/2000/svg"
 width="422.000000pt" height="432.000000pt" viewBox="0 0 422.000000 432.000000"
 preserveAspectRatio="xMidYMid meet">
<metadata>
Created by potrace 1.13, written by Peter Selinger 2001-2015
</metadata>
<g transform="translate(0.000000,432.000000) scale(0.100000,-0.100000)"
fill="#000000" stroke="none">
<path d="M3667 4298 c-37 -22 -77 -85 -77 -121 0 -38 30 -86 72 -115 27 -19
50 -45 60 -69 26 -59 62 -223 52 -233 -5 -5 -72 -14 -149 -20 -500 -40 -1059
-172 -1550 -365 -462 -182 -860 -401 -1270 -700 -79 -58 -146 -105 -150 -105
-7 0 -106 205 -126 263 -7 20 -17 37 -21 37 -11 0 -12 9 23 -183 22 -116 29
-177 23 -192 -8 -20 -195 -192 -296 -274 -38 -30 -47 -32 -88 -27 -96 13 -176
-60 -167 -153 6 -57 33 -92 91 -115 45 -19 47 -19 92 0 63 26 85 58 93 137 4
36 13 73 21 82 12 14 224 204 282 253 24 20 38 7 88 -84 64 -117 232 -364 339
-497 412 -516 960 -950 1596 -1262 169 -83 419 -190 547 -235 37 -13 69 -29
72 -35 2 -7 -32 -66 -76 -131 -44 -66 -83 -125 -86 -133 -3 -9 11 -4 39 12 81
48 146 106 183 162 21 30 44 55 52 55 20 0 241 -67 273 -83 13 -7 32 -30 41
-52 26 -60 61 -87 117 -92 93 -8 158 57 150 150 -9 98 -111 156 -192 108 -22
-13 -53 -21 -81 -21 -51 0 -264 66 -264 82 0 5 25 55 56 110 265 473 446 1055
521 1683 14 119 18 224 17 515 0 389 -8 504 -60 838 -19 127 -22 167 -13 178
9 11 45 14 163 14 97 1 145 4 135 10 -32 19 -194 60 -260 66 -78 8 -73 1 -108
149 -27 118 -27 147 4 183 56 66 53 131 -9 191 -46 44 -105 51 -159 19z m121
-645 c33 -29 84 -373 102 -698 45 -787 -76 -1470 -380 -2153 -73 -162 -200
-401 -225 -422 -17 -14 -88 10 -330 112 -816 346 -1467 845 -1948 1493 -92
124 -222 327 -278 434 l-32 61 24 26 c35 38 217 170 381 278 759 497 1640 805
2513 875 151 12 151 12 173 -6z"/>
<path d="M3065 3319 c-139 -11 -332 -44 -493 -84 -418 -104 -785 -278 -1127
-535 -154 -116 -341 -281 -350 -310 -4 -14 9 -50 44 -114 266 -499 676 -929
1166 -1223 199 -120 387 -205 643 -290 154 -52 165 -54 187 -39 13 9 54 65 89
126 243 409 385 834 437 1310 16 148 16 516 0 645 -33 265 -83 488 -114 510
-17 12 -56 15 -202 14 -99 -1 -225 -5 -280 -10z"/>
</g>
</svg>
